<svg id="Layer_1" height="512" viewBox="0 0 512 512" width="512" xmlns="http://www.w3.org/2000/svg" xmlns:xlink="http://www.w3.org/1999/xlink" data-name="Layer 1"><linearGradient id="linear-gradient" gradientUnits="userSpaceOnUse" x1="310.248" x2="310.248" y1="466.992" y2="59.952"><stop offset=".322" stop-color="#a163f5"/><stop offset=".466" stop-color="#b074ee"/><stop offset=".752" stop-color="#d8a1dd"/><stop offset=".898" stop-color="#efbad3"/></linearGradient><linearGradient id="linear-gradient-2" x1="390.314" x2="390.314" xlink:href="#linear-gradient" y1="466.992" y2="59.952"/><linearGradient id="linear-gradient-3" x1="342.111" x2="342.111" xlink:href="#linear-gradient" y1="466.992" y2="59.952"/><linearGradient id="linear-gradient-4" x1="50.168" x2="50.168" xlink:href="#linear-gradient" y1="466.992" y2="59.952"/><linearGradient id="linear-gradient-5" x1="99.751" x2="99.751" xlink:href="#linear-gradient" y1="466.992" y2="59.952"/><linearGradient id="linear-gradient-6" x1="386.146" x2="386.146" xlink:href="#linear-gradient" y1="466.992" y2="59.952"/><linearGradient id="linear-gradient-7" x1="403.979" x2="403.979" xlink:href="#linear-gradient" y1="466.992" y2="59.952"/><linearGradient id="linear-gradient-8" x1="443.591" x2="443.591" xlink:href="#linear-gradient" y1="466.992" y2="59.952"/><linearGradient id="linear-gradient-9" x1="218.261" x2="218.261" xlink:href="#linear-gradient" y1="466.992" y2="59.952"/><linearGradient id="linear-gradient-10" x1="186.483" x2="186.483" xlink:href="#linear-gradient" y1="466.992" y2="59.952"/><linearGradient id="linear-gradient-11" x1="180.293" x2="180.293" xlink:href="#linear-gradient" y1="466.992" y2="59.952"/><linearGradient id="linear-gradient-12" x1="256" x2="256" xlink:href="#linear-gradient" y1="466.992" y2="59.952"/><linearGradient id="linear-gradient-13" x1="69.429" x2="69.429" xlink:href="#linear-gradient" y1="466.992" y2="59.952"/><path d="m348.351 132.311a4.99 4.99 0 0 0 -5.6 4.322c-4.742 36.883-48.124 86.419-73.561 112.664a5 5 0 0 0 7.181 6.96c58.206-60.056 73.618-97.507 76.3-118.349a5 5 0 0 0 -4.32-5.597z" fill="url(#linear-gradient)"/><path d="m360.317 153.12a5 5 0 1 0 -1.627 9.866c47.117 7.773 57.171 46.635 57.577 48.285a5 5 0 0 0 9.721-2.343c-.458-1.912-11.838-46.928-65.671-55.808z" fill="url(#linear-gradient-2)"/><path d="m336.591 206.569a5 5 0 0 0 -2.549 6.595c14.682 33.2-.024 78.519-.174 78.973a5 5 0 0 0 9.491 3.151c.664-2 16.089-49.4-.173-86.168a5 5 0 0 0 -6.595-2.551z" fill="url(#linear-gradient-3)"/><path d="m52.14 57.406c-20.04 20.005-10.026 46.705-9.59 47.832a5 5 0 0 0 9.33-3.6c-.335-.883-8.043-21.822 7.324-37.159a5 5 0 1 0 -7.064-7.077z" fill="url(#linear-gradient-4)"/><path d="m134.489 114.355a5 5 0 0 0 -2.07-6.761c-1.48-.786-36.544-19.125-64.7-8.859a5 5 0 0 0 3.424 9.395c23.908-8.715 56.143 8.061 56.587 8.3a5 5 0 0 0 6.761-2.07z" fill="url(#linear-gradient-5)"/><path d="m384.772 317.242a161.814 161.814 0 0 0 -6.884 26.416 5 5 0 1 0 9.849 1.732 151.737 151.737 0 0 1 6.449-24.777 5 5 0 0 0 -9.414-3.371z" fill="url(#linear-gradient-6)"/><path d="m402.071 284.875c-1.491 1.947-2.946 3.992-4.324 6.08a5 5 0 1 0 8.343 5.51c1.251-1.893 2.57-3.748 3.92-5.51a5 5 0 1 0 -7.939-6.08z" fill="url(#linear-gradient-7)"/><path d="m468.064 247.573c-.061 0-.124 0-.187 0a76.328 76.328 0 0 0 -19.158 3.946 95.684 95.684 0 0 0 -32.877 18.669 5 5 0 0 0 6.556 7.551 85.73 85.73 0 0 1 29.44-16.72 68.027 68.027 0 0 1 16.42-3.454 5 5 0 0 0 -.194-10z" fill="url(#linear-gradient-8)"/><path d="m231.91 199.45a5 5 0 0 0 5.5-8.351 123 123 0 0 1 -31.529-29.356 5 5 0 0 0 -8.038 5.947 132.951 132.951 0 0 0 34.067 31.76z" fill="url(#linear-gradient-9)"/><path d="m181.466 117.715a5 5 0 0 0 -3.766 5.985 118.632 118.632 0 0 0 8.167 23.888 5 5 0 0 0 9.06-4.232 108.577 108.577 0 0 1 -7.475-21.871 5 5 0 0 0 -5.986-3.77z" fill="url(#linear-gradient-10)"/><path d="m179.545 97.614h.181a5 5 0 0 0 4.994-4.814 75.644 75.644 0 0 1 1.043-10.756 5 5 0 0 0 -9.8-1.976 83.053 83.053 0 0 0 -1.234 12.374 5 5 0 0 0 4.816 5.172z" fill="url(#linear-gradient-11)"/><path d="m403.894 112.763a294.868 294.868 0 0 0 -72.758 4.015 5 5 0 0 0 -3.973 4.264c-2.036 15.831-14.3 51.52-73.559 112.665-3.975 4.1-7.185 10.359-10.582 16.984-4.447 8.671-9.989 19.461-15 18.39a118.887 118.887 0 0 0 -26.943-2.373c-12.972-32.212 6.595-57.2 7.469-58.286a5 5 0 0 0 -1.134-7.324c-26.878-17.7-43.741-41.363-50.121-70.332-4.794-21.761-1.558-38.56-1.527-38.719a5 5 0 0 0 -4.182-5.939c-36.3-5.27-60.318-17.024-69.449-33.992-8.715-16.2-1.514-31.917-1.212-32.561a5 5 0 0 0 -5.794-6.994c-25.245 6.717-43.384 19.385-53.917 37.652-16.447 28.524-8.176 60.072-7.816 61.4a5 5 0 0 0 2.771 3.251c43.177 19.46 71.728 56.65 88.075 84.422a291.784 291.784 0 0 1 23.458 50.274c-.454-.108-.9-.217-1.361-.324a89.05 89.05 0 0 0 -19.589-2.39c1.066-3.362 1.769-5.759 1.852-6.042a5 5 0 0 0 -4.8-6.4 37.008 37.008 0 0 0 -10.752 1.52 103.479 103.479 0 0 0 -1.385-17.8 5 5 0 0 0 -7.41-3.464c-28.855 16.54-32.297 64.758-32.429 66.803 0 .046-.005.091-.006.136l-1.136 30.31-.008.3a10.754 10.754 0 0 0 8.873 10.912l13.305 2.419a5 5 0 0 0 5.113-2.235l7.311-11.49c4.732-2.159 18.195-9.476 22.534-24.282 10.593-.136 25.225 1.436 39.57 8.729a131.256 131.256 0 0 0 7.612 27.5c5.651 13.9 13.275 24.5 22.685 31.582l-11.328 32.693a15.715 15.715 0 0 0 2.527 14.947l7.6 9.621a15.692 15.692 0 0 0 12.386 6 5.769 5.769 0 0 1 5.313 3.508 18.769 18.769 0 0 0 -9.177 16.208v12.631a5 5 0 0 0 3.673 4.821l10.827 2.977a5 5 0 0 0 6.181-3.628l1.169-4.759a8.874 8.874 0 0 1 3.349-5l-1.214 12.924a5 5 0 0 0 2.959 5.042l10.748 4.742a5 5 0 0 0 6.794-3.094l.758-2.443a89.648 89.648 0 0 0 8.818 9.964c13.115 12.766 36.228 27.111 73.851 27.111q5.324 0 11.05-.4c15.019-.019 32.284-3.97 48.064-17.114l15.973-11.42a5.062 5.062 0 0 0 .554-.46l5.557-5.329a50.386 50.386 0 0 0 15.519-34.166l1.039-22.386a5 5 0 0 0 -8.36-3.93l-17.565 15.983a50.491 50.491 0 0 0 -16.31 32.563l-.575 5.957c-18.745 20.018-53.382 13.025-53.649 12.97-27.311-6.3-31.352-34.519-31.711-37.584.6-61.693-10.445-85.172-16.587-93.432 12.352-13.934 29.935-21.87 52.334-23.6a119.711 119.711 0 0 1 33.387 2.127 5 5 0 0 0 6.106-3.992c6.223-35.375 21.623-60.889 45.774-75.832 18.052-11.17 34.581-11.982 34.735-11.989a5 5 0 0 0 4.807-4.719c.936-16.86 6.281-29.314 15.886-37.017 15.045-12.066 36.021-8.772 36.223-8.738a5 5 0 0 0 5.538-6.63c-12.225-33.801-45.702-53.755-96.808-57.708zm-290.894 81.69c-30.052-51.165-65.35-75.853-90.443-87.653-1.431-7.179-4.76-30.644 7.318-51.59 7.912-13.726 21.008-23.879 38.993-30.26a47.153 47.153 0 0 0 4.374 31.75c10.344 19.4 34.549 32.361 71.981 38.545a119.667 119.667 0 0 0 2.2 37.221c4.541 21 16.98 50.523 50.262 74.1-5.866 9.353-17.064 32.447-7.083 60.733-4.807.444-8.544 1.029-10.676 1.408a159.387 159.387 0 0 0 -23.535-10.574 4.942 4.942 0 0 0 -.159-2.31c-.379-1.178-9.362-29-15.652-43.559a5 5 0 1 0 -9.179 3.966c4.623 10.7 10.982 29.522 13.829 38.13-1.935-.6-3.921-1.2-6.01-1.8-1.282-4.26-9.094-28.951-26.22-58.107zm75.861 214.152a5.75 5.75 0 0 1 -4.539-2.2l-7.6-9.621a5.755 5.755 0 0 1 -.926-5.477l10.47-30.207c2.9 1.928 5.442 3.67 7.568 5.15a21.344 21.344 0 0 0 -6.86 18.486l1.362 10.63a21.411 21.411 0 0 0 12.754 16.889l.365.155a11.311 11.311 0 0 1 6.069 6.239l-3.717.572-.384-.92a15.741 15.741 0 0 0 -14.561-9.696zm32.729 48.05-2.317-1.023.931-9.905c.753 1.691 1.724 3.69 2.941 5.907zm24.8 9.019a78.9 78.9 0 0 1 -15.935-21.683l1.837.05a5.024 5.024 0 0 0 5.074-4.231l1.443-9.3c5.9 15.848 16.6 36.99 35.031 52.511a81.088 81.088 0 0 1 -27.45-17.347zm241.779-299.037c-9.01 0-23.421 1.768-35.4 11.333-11.093 8.855-17.6 22.321-19.365 40.063a92.926 92.926 0 0 0 -34.67 12.73c-17.875 10.916-40.713 33.232-49.887 77.9a133.228 133.228 0 0 0 -31.061-1.395c-26.757 2-48.348 12.61-62.437 30.672a4.877 4.877 0 0 0 -1.124 3.905 4.621 4.621 0 0 0 2.13 3.225c1.165 1.072 16.892 16.981 16.145 89.42a4.842 4.842 0 0 0 .023.525 62.07 62.07 0 0 0 6.2 20.094c7.053 13.956 18.546 23.125 33.321 26.534 1.71.362 42.054 8.594 64.42-17.352a4.991 4.991 0 0 0 1.189-2.784l.733-7.593a40.515 40.515 0 0 1 13.087-26.127l8.647-7.868-.479 10.341a40.429 40.429 0 0 1 -12.452 27.413l-5.3 5.079-15.836 11.311c-.1.074-.206.153-.3.235-32.3 27.04-73.681 8.86-77.02 7.319-34.336-21.969-44.978-67.809-46.329-74.29l1.658-10.686a5 5 0 1 0 -9.88-1.533l-6.024 38.823-12.174-.326a19.018 19.018 0 0 0 -18.793 14.146l-2.2-.605v-8.821a8.842 8.842 0 0 1 7.54-8.786l11.54-1.776a5 5 0 0 0 4.239-4.942 21.3 21.3 0 0 0 -12.927-19.6l-.364-.155a11.367 11.367 0 0 1 -6.77-8.967l-1.364-10.63a11.36 11.36 0 0 1 9.011-12.542l17.145-3.429a11.34 11.34 0 0 1 10.007 2.882l10.9 10.33a5 5 0 1 0 6.877-7.259l-10.9-10.33a21.346 21.346 0 0 0 -18.845-5.428l-17.145 3.429-1.378-.966c-3.628-2.545-9.11-6.391-16.231-10.949-16.226-10.385-23.833-31.395-27.24-45.517a74.186 74.186 0 0 1 6.545 5.72 5 5 0 0 0 7.012-7.13c-34.741-34.168-80.89-23.352-82.835-22.875a5 5 0 0 0 2.37 9.714c.083-.019 1.756-.406 4.615-.793-5.066 10.274-16.536 14.769-16.66 14.817a4.994 4.994 0 0 0 -2.466 2l-6.338 9.96-10-1.818a.805.805 0 0 1 -.666-.812l1.136-30.416c.121-1.656 2.933-36.994 20.994-53.93a65.443 65.443 0 0 1 -.151 13.332 34.736 34.736 0 0 0 -9.634 13.241 53.7 53.7 0 0 0 -4.156 19.271 5 5 0 0 0 4.988 4.994h.012a5 5 0 0 0 5-4.982c0-1.079.338-23.835 17.894-28.678-2.2 6.814-5.261 15.553-7.542 19.545a5 5 0 1 0 8.681 4.962 91.031 91.031 0 0 0 5.488-12.914 76.868 76.868 0 0 1 20.7 2.079c34.175 7.947 52.077 19.105 52.247 19.212a5.006 5.006 0 0 0 3.731.672c.229-.049 23.206-4.851 45.878 0 12.522 2.682 19.674-11.286 25.991-23.6 2.914-5.682 5.927-11.557 8.865-14.588 54.947-56.694 71.758-93.244 75.721-114.693 9.435-1.581 37.186-5.545 66.814-3.225 43.526 3.406 72.033 18.16 84.885 43.889z" fill="url(#linear-gradient-12)"/><circle cx="69.429" cy="293.711" fill="url(#linear-gradient-13)" r="5.5"/></svg>