<svg id="Layer_1" height="512" viewBox="0 0 512 512" width="512" xmlns="http://www.w3.org/2000/svg" data-name="Layer 1"><g fill="#d4e1f4"><path d="m168.37 258.13c.12-.76-15.08-4.98-17.17-5.57-1.28-4.27-9.1-28.96-26.22-58.11-30.06-51.17-65.36-75.86-90.45-87.66-1.43-7.18-4.76-30.65 7.32-51.6 5.891-10.218 14.665-18.457 26.184-24.635a52.127 52.127 0 0 1 .806-5.625c-17.98 6.38-31.08 16.54-38.99 30.26-12.08 20.95-8.75 44.42-7.32 51.6 25.09 11.8 60.39 36.49 90.45 87.66 17.12 29.15 24.94 53.84 26.22 58.11 2.09.59 17.29 4.81 17.17 5.57a160.287 160.287 0 0 1 23.54 10.57c1.97-.351 5.331-.873 9.621-1.306a172.2 172.2 0 0 0 -21.161-9.264z"/><path d="m173.978 304.7a4.986 4.986 0 0 0 6.652-7.417c-34.74-34.17-80.89-23.36-82.84-22.88a5 5 0 0 0 -3.755 4.181c12.458-1.991 49.52-4.9 78.6 23.7a4.936 4.936 0 0 1 1.343 2.416z"/><path d="m69.31 308.28a.806.806 0 0 1 -.66-.81l1.13-30.42c0-.032.008-.1.012-.158a4.949 4.949 0 0 1 -.962-2.922 53.564 53.564 0 0 1 4.15-19.27 41.457 41.457 0 0 1 2.156-4.271 80.5 80.5 0 0 1 7.883-17.629c-.039-1.63-.126-3.216-.239-4.684-18.06 16.93-20.88 52.27-21 53.93l-1.13 30.42a.806.806 0 0 0 .66.81l10 1.82 3.683-5.786z"/><path d="m88.12 298.14a4.964 4.964 0 0 0 -2.47 2l-.056.088a37.775 37.775 0 0 0 3.429-2.48c-.553.252-.883.384-.903.392z"/><path d="m350.169 302.741a132.772 132.772 0 0 0 -24.4-.481c-18.4 1.382-34.353 6.825-47.107 15.964 11.212-6.131 24.37-9.857 39.107-10.964a132.795 132.795 0 0 1 31.06 1.4c.417-2.024.871-3.986 1.34-5.919z"/><path d="m259.91 250.25c2.91-5.68 5.92-11.56 8.86-14.59 51.746-53.394 69.665-88.914 74.9-110.788-2.964.409-5.39.791-7.165 1.088-3.97 21.45-20.78 58-75.73 114.7-2.94 3.03-5.95 8.91-8.86 14.59-3.416 6.66-7.08 13.8-11.7 18.53 8.778-2.251 14.519-13.441 19.695-23.53z"/><path d="m78.862 272.969a4.949 4.949 0 0 0 2.958.991h.01a5.01 5.01 0 0 0 5-4.98c0-.841.209-14.836 8.6-23.27-14.53 4.981-16.347 22.758-16.568 27.259z"/><path d="m296.72 476.62c-34.33-21.97-44.98-67.81-46.33-74.29l1.66-10.69a5 5 0 1 0 -9.88-1.53l-.255 1.644a5 5 0 0 1 2.135 4.886l-1.66 10.69c1.35 6.48 12 52.32 46.33 74.29 3.232 1.49 42.086 18.557 73.862-4.833-29.956 15.672-62.897 1.2-65.862-.167z"/><path d="m203.92 361.12 10.916-2.183c-.42-.3-3.8-3.437-4.286-3.777-3.63-2.55-9.11-6.4-16.24-10.95-12.068-7.73-19.367-21.338-23.719-33.614a4.871 4.871 0 0 1 -4.971-1.186 71.661 71.661 0 0 0 -6.55-5.72c3.41 14.12 11.02 35.13 27.24 45.52 7.13 4.55 12.61 8.4 16.24 10.95.49.34.95.66 1.37.96z"/><path d="m461.3 172.554a61.2 61.2 0 0 1 26.868-5.924h.03c-.72-1.442-1.5-2.844-2.315-4.217a53.1 53.1 0 0 0 -24.583 10.141z"/><path d="m406.72 225.76c-1.554.949-3.148 1.99-4.766 3.119a92.377 92.377 0 0 1 31.446-10.849c.119-1.2.264-2.376.426-3.536a94.981 94.981 0 0 0 -27.106 11.266z"/><path d="m222.06 422.77a5.01 5.01 0 0 0 4.24-4.95 21.3 21.3 0 0 0 -12.93-19.6l-.36-.15a11.383 11.383 0 0 1 -6.77-8.97l-1.37-10.63a11.272 11.272 0 0 1 1.833-7.7l-.823.164a11.364 11.364 0 0 0 -9.01 12.54l1.37 10.63a11.383 11.383 0 0 0 6.77 8.97l.36.15a21.3 21.3 0 0 1 12.93 19.6 4.709 4.709 0 0 1 -.049.534z"/><path d="m223.97 428.61a18.929 18.929 0 0 0 -14.164 5.879 18.494 18.494 0 0 1 6.164-.879l12.17.32.806-5.189z"/><path d="m202.98 433.33a8.919 8.919 0 0 1 .945-4l-1.405.215a8.843 8.843 0 0 0 -7.54 8.79v8.82l2.2.6a18.827 18.827 0 0 1 5.8-9.384z"/></g><path d="m272.77 257.773a5 5 0 0 1 -3.59-8.48c25.438-26.247 68.823-75.786 73.565-112.671a5 5 0 0 1 9.918 1.275c-2.68 20.844-18.093 58.3-76.3 118.356a4.983 4.983 0 0 1 -3.593 1.52z" fill="#1ae5be"/><path d="m421.117 215.088a5 5 0 0 1 -4.855-3.823c-.406-1.651-10.46-40.514-57.58-48.288a5 5 0 1 1 1.627-9.867c53.837 8.882 65.216 53.9 65.674 55.812a5 5 0 0 1 -4.866 6.166z" fill="#1ae5be"/><path d="m338.605 298.711a5 5 0 0 1 -4.747-6.575c.151-.454 14.857-45.781.174-78.978a5 5 0 0 1 9.145-4.045c16.262 36.767.837 84.173.173 86.173a5.005 5.005 0 0 1 -4.745 3.425z" fill="#1ae5be"/><path d="m47.18 108.415a4.992 4.992 0 0 1 -4.657-3.189c-.435-1.126-10.454-27.826 9.591-47.835a5 5 0 1 1 7.065 7.078c-15.368 15.338-7.659 36.277-7.325 37.161a5 5 0 0 1 -4.674 6.785z" fill="#1ae5be"/><path d="m130.048 117a4.976 4.976 0 0 1 -2.341-.585c-.444-.233-32.682-17.01-56.591-8.3a5 5 0 0 1 -3.424-9.395c28.16-10.267 63.226 8.073 64.705 8.859a5 5 0 0 1 -2.349 9.421z" fill="#1ae5be"/><path d="m151.453 262.351a5 5 0 0 1 -4.758-3.468c-.091-.284-9.216-28.549-15.314-42.662a5 5 0 0 1 9.18-3.967c6.29 14.556 15.273 42.385 15.652 43.562a5 5 0 0 1 -4.76 6.535z" fill="#1ae5be"/><path d="m382.812 349.526a5.082 5.082 0 0 1 -.873-.076 5 5 0 0 1 -4.058-5.791 161.826 161.826 0 0 1 6.885-26.417 5 5 0 1 1 9.414 3.371 151.734 151.734 0 0 0 -6.45 24.779 5 5 0 0 1 -4.918 4.134z" fill="#1ae5be"/><path d="m401.908 298.709a5 5 0 0 1 -4.167-7.756c1.378-2.087 2.833-4.133 4.324-6.08a5 5 0 1 1 7.94 6.08c-1.351 1.763-2.669 3.617-3.92 5.511a5 5 0 0 1 -4.177 2.245z" fill="#1ae5be"/><path d="m419.117 278.965a5 5 0 0 1 -3.28-8.776 95.73 95.73 0 0 1 32.879-18.67 76.339 76.339 0 0 1 19.159-3.946h.187a5 5 0 0 1 .194 10 68.076 68.076 0 0 0 -16.421 3.455 85.725 85.725 0 0 0 -29.441 16.72 4.984 4.984 0 0 1 -3.277 1.217z" fill="#1ae5be"/><path d="m234.64 200.268a4.974 4.974 0 0 1 -2.745-.825 132.968 132.968 0 0 1 -34.07-31.761 5 5 0 1 1 8.039-5.948 122.99 122.99 0 0 0 31.536 29.357 5 5 0 0 1 -2.755 9.177z" fill="#1ae5be"/><path d="m190.379 150.461a5 5 0 0 1 -4.533-2.885 118.641 118.641 0 0 1 -8.167-23.889 5 5 0 1 1 9.752-2.215 108.607 108.607 0 0 0 7.475 21.872 5 5 0 0 1 -4.527 7.117z" fill="#1ae5be"/><path d="m179.708 97.605c-.061 0-.121 0-.182 0a5 5 0 0 1 -4.818-5.176 83.243 83.243 0 0 1 1.234-12.375 5 5 0 0 1 9.8 1.977 75.621 75.621 0 0 0 -1.042 10.753 5 5 0 0 1 -4.992 4.821z" fill="#1ae5be"/><path d="m500.7 170.467c-12.225-33.8-45.7-53.751-96.808-57.7a294.868 294.868 0 0 0 -72.758 4.015 5 5 0 0 0 -3.973 4.264c-2.036 15.831-14.3 51.52-73.559 112.665-3.975 4.1-7.185 10.359-10.582 16.984-4.447 8.671-9.989 19.461-15 18.39a118.887 118.887 0 0 0 -26.943-2.373c-12.972-32.212 6.595-57.2 7.469-58.286a5 5 0 0 0 -1.134-7.324c-26.878-17.7-43.741-41.363-50.121-70.332-4.794-21.761-1.558-38.56-1.527-38.719a5 5 0 0 0 -4.182-5.939c-36.3-5.27-60.318-17.024-69.449-33.992-8.715-16.2-1.514-31.917-1.212-32.561a5 5 0 0 0 -5.794-6.994c-25.243 6.713-43.382 19.381-53.915 37.648-16.447 28.524-8.176 60.072-7.816 61.4a5 5 0 0 0 2.771 3.251c43.177 19.46 71.728 56.65 88.075 84.422a291.784 291.784 0 0 1 23.458 50.274c-.454-.108-.9-.217-1.361-.324a89.05 89.05 0 0 0 -19.589-2.39c1.066-3.362 1.769-5.759 1.852-6.042a5 5 0 0 0 -4.8-6.4 37.008 37.008 0 0 0 -10.752 1.52 103.479 103.479 0 0 0 -1.385-17.8 5 5 0 0 0 -7.41-3.464c-28.855 16.54-32.297 64.758-32.429 66.803 0 .046-.005.091-.006.136l-1.136 30.31-.008.3a10.754 10.754 0 0 0 8.873 10.912l13.305 2.419a5 5 0 0 0 5.113-2.235l7.311-11.49c4.732-2.159 18.195-9.476 22.534-24.282 10.593-.136 25.225 1.436 39.57 8.729a131.256 131.256 0 0 0 7.612 27.5c5.651 13.9 13.275 24.5 22.685 31.582l-11.328 32.693a15.715 15.715 0 0 0 2.527 14.947l7.6 9.621a15.692 15.692 0 0 0 12.386 6 5.769 5.769 0 0 1 5.313 3.508 18.769 18.769 0 0 0 -9.177 16.208v12.631a5 5 0 0 0 3.673 4.821l10.827 2.977a5 5 0 0 0 6.181-3.628l1.169-4.759a8.874 8.874 0 0 1 3.349-5l-1.214 12.924a5 5 0 0 0 2.959 5.042l10.748 4.742a5 5 0 0 0 6.794-3.094l.758-2.443a89.648 89.648 0 0 0 8.818 9.964c13.115 12.766 36.228 27.111 73.851 27.111q5.324 0 11.05-.4c15.019-.019 32.284-3.97 48.064-17.114l15.973-11.42a5.062 5.062 0 0 0 .554-.46l5.557-5.329a50.386 50.386 0 0 0 15.519-34.166l1.039-22.386a5 5 0 0 0 -8.36-3.93l-17.565 15.983a50.491 50.491 0 0 0 -16.31 32.563l-.575 5.957c-18.745 20.018-53.382 13.025-53.649 12.97-27.311-6.3-31.352-34.519-31.711-37.584.6-61.693-10.445-85.172-16.587-93.432 12.352-13.934 29.935-21.87 52.334-23.6a119.711 119.711 0 0 1 33.387 2.127 5 5 0 0 0 6.106-3.992c6.223-35.375 21.623-60.889 45.774-75.832 18.052-11.17 34.581-11.982 34.735-11.989a5 5 0 0 0 4.807-4.719c.936-16.86 6.281-29.314 15.886-37.017 15.045-12.066 36.021-8.772 36.223-8.738a5 5 0 0 0 5.538-6.63zm-387.7 23.986c-30.052-51.165-65.35-75.853-90.443-87.653-1.431-7.179-4.76-30.644 7.318-51.59 7.912-13.726 21.008-23.879 38.993-30.26a47.153 47.153 0 0 0 4.374 31.75c10.344 19.4 34.549 32.361 71.981 38.545a119.667 119.667 0 0 0 2.2 37.221c4.541 21 16.98 50.523 50.262 74.1-5.866 9.353-17.064 32.447-7.083 60.733-4.807.444-8.544 1.029-10.676 1.408-4.629-2.644-18.244-9.759-40.706-16.144-1.282-4.263-9.094-28.954-26.22-58.11zm75.861 214.152a5.75 5.75 0 0 1 -4.539-2.2l-7.6-9.621a5.755 5.755 0 0 1 -.926-5.477l10.47-30.207c2.9 1.928 5.442 3.67 7.568 5.15a21.344 21.344 0 0 0 -6.86 18.486l1.362 10.63a21.411 21.411 0 0 0 12.754 16.889l.365.155a11.311 11.311 0 0 1 6.069 6.239l-3.717.572-.384-.92a15.741 15.741 0 0 0 -14.561-9.696zm32.729 48.05-2.317-1.023.931-9.905c.753 1.691 1.724 3.69 2.941 5.907zm8.864-12.664 1.837.05a5.024 5.024 0 0 0 5.074-4.231l1.443-9.3c5.9 15.848 16.6 36.99 35.031 52.511a81.088 81.088 0 0 1 -27.45-17.346 78.9 78.9 0 0 1 -15.934-21.684zm257.715-277.354c-9.01 0-23.421 1.768-35.4 11.333-11.093 8.855-17.6 22.321-19.365 40.063a92.926 92.926 0 0 0 -34.67 12.73c-17.875 10.916-40.713 33.232-49.887 77.9a133.228 133.228 0 0 0 -31.061-1.395c-26.757 2-48.348 12.61-62.437 30.672a4.877 4.877 0 0 0 -1.124 3.905 4.621 4.621 0 0 0 2.13 3.225c1.165 1.072 16.892 16.981 16.145 89.42a4.842 4.842 0 0 0 .023.525 62.07 62.07 0 0 0 6.2 20.094c7.053 13.956 18.546 23.125 33.321 26.534 1.71.362 42.054 8.594 64.42-17.352a4.991 4.991 0 0 0 1.189-2.784l.733-7.593a40.515 40.515 0 0 1 13.087-26.127l8.647-7.868-.479 10.341a40.429 40.429 0 0 1 -12.452 27.413l-5.3 5.079-15.836 11.311c-.1.074-.206.153-.3.235-32.3 27.04-73.681 8.86-77.02 7.319-34.336-21.969-44.978-67.809-46.329-74.29l1.658-10.686a5 5 0 1 0 -9.88-1.533l-6.024 38.823-12.174-.326a19.018 19.018 0 0 0 -18.793 14.146l-2.2-.605v-8.821a8.842 8.842 0 0 1 7.54-8.786l11.54-1.776a5 5 0 0 0 4.239-4.942 21.3 21.3 0 0 0 -12.927-19.6l-.364-.155a11.367 11.367 0 0 1 -6.77-8.967l-1.364-10.63a11.36 11.36 0 0 1 9.011-12.542l17.145-3.429a11.34 11.34 0 0 1 10.007 2.882l10.9 10.33a5 5 0 1 0 6.877-7.259l-10.9-10.33a21.346 21.346 0 0 0 -18.845-5.428l-17.145 3.429-1.378-.966c-3.628-2.545-9.11-6.391-16.231-10.949-16.226-10.385-23.833-31.395-27.24-45.517a74.186 74.186 0 0 1 6.545 5.72 5 5 0 0 0 7.012-7.13c-34.741-34.168-80.89-23.352-82.835-22.875a5 5 0 0 0 2.37 9.714c.083-.019 1.756-.406 4.615-.793-5.066 10.274-16.536 14.769-16.66 14.817a4.994 4.994 0 0 0 -2.466 2l-6.338 9.96-10-1.818a.805.805 0 0 1 -.666-.812l1.136-30.416c.121-1.656 2.933-36.994 20.994-53.93a65.443 65.443 0 0 1 -.151 13.332 34.736 34.736 0 0 0 -9.634 13.241 53.7 53.7 0 0 0 -4.156 19.271 5 5 0 0 0 4.988 4.994h.012a5 5 0 0 0 5-4.982c0-1.079.338-23.835 17.894-28.678-2.2 6.814-5.261 15.553-7.542 19.545a5 5 0 1 0 8.681 4.962 91.031 91.031 0 0 0 5.488-12.914 76.868 76.868 0 0 1 20.7 2.079c34.175 7.947 52.077 19.105 52.247 19.212a5.006 5.006 0 0 0 3.731.672c.229-.049 23.206-4.851 45.878 0 12.522 2.682 19.674-11.286 25.991-23.6 2.914-5.682 5.927-11.557 8.865-14.588 54.947-56.694 71.758-93.244 75.721-114.693 9.435-1.581 37.186-5.545 66.814-3.225 43.526 3.406 72.033 18.16 84.885 43.889z" fill="#0635c9"/><circle cx="69.429" cy="293.711" fill="#0635c9" r="5.5"/></svg>